<?xml version="1.0" encoding="UTF-8"?>
<svg id="Layer_1" xmlns="http://www.w3.org/2000/svg" version="1.1" viewBox="0 0 512 512">
  <!-- Generator: Adobe Illustrator 29.8.1, SVG Export Plug-In . SVG Version: 2.1.1 Build 2)  -->
  <defs>
    <style>
      .st0 {
        fill: #00bfff;
      }
    </style>
  </defs>
  <path class="st0" d="M400,464H112c-8.83,0-16-7.17-16-16s7.17-16,16-16h288c8.83,0,16,7.17,16,16s-7.17,16-16,16Z"/>
  <path class="st0" d="M368,384c-8.83,0-15.99-7.15-16-15.98-.06-43.83-44.38-69.1-85.93-89.33-5.52-2.69-11.38-5.42-17.45-8.24-50.86-23.7-120.52-56.17-120.62-126.43,0-8.83,7.14-16.01,15.98-16.02h.02c8.82,0,15.99,7.15,16,15.98.07,49.9,54.3,75.17,102.14,97.47,6.23,2.9,12.26,5.72,17.94,8.49,36.29,17.67,103.82,50.56,103.92,118.05,0,8.83-7.14,16.01-15.98,16.02-.02,0-.02,0-.03,0h0Z"/>
  <path class="st0" d="M144,384h-.02c-8.83-.02-15.99-7.18-15.98-16.02.1-70.26,69.76-102.73,120.62-126.43,6.06-2.82,11.93-5.55,17.45-8.24,41.54-20.23,85.86-45.49,85.93-89.33,0-8.82,7.18-15.98,16-15.98h.02c8.83.02,15.99,7.18,15.98,16.02-.1,67.49-67.63,100.38-103.92,118.05-5.68,2.77-11.7,5.58-17.94,8.49-47.83,22.29-102.06,47.56-102.14,97.46,0,8.82-7.18,15.98-16,15.98h0Z"/>
  <path class="st0" d="M368,464c-8.83,0-16-7.17-16-16v-80c0-8.83,7.17-16,16-16s16,7.17,16,16v80c0,8.83-7.17,16-16,16Z"/>
  <path class="st0" d="M144,464c-8.83,0-16-7.17-16-16v-80c0-8.83,7.17-16,16-16s16,7.17,16,16v80c0,8.83-7.17,16-16,16Z"/>
  <path class="st0" d="M368,160c-8.83,0-16-7.17-16-16V64c0-8.83,7.17-16,16-16s16,7.17,16,16v80c0,8.83-7.17,16-16,16Z"/>
  <path class="st0" d="M144,160c-8.83,0-16-7.17-16-16V64c0-8.83,7.17-16,16-16s16,7.17,16,16v80c0,8.83-7.17,16-16,16Z"/>
  <path class="st0" d="M400,80H112c-8.83,0-16-7.17-16-16s7.17-16,16-16h288c8.83,0,16,7.17,16,16s-7.17,16-16,16Z"/>
</svg>