<?xml version="1.0" encoding="UTF-8"?>
<svg id="svg99" xmlns="http://www.w3.org/2000/svg" version="1.1" xmlns:svg="http://www.w3.org/2000/svg" viewBox="0 0 682.67 682.67">
  <!-- Generator: Adobe Illustrator 29.8.1, SVG Export Plug-In . SVG Version: 2.1.1 Build 2)  -->
  <defs>
    <style>
      .st0 {
        fill: none;
        stroke: #00bfff;
        stroke-linecap: round;
        stroke-linejoin: round;
        stroke-width: 20px;
      }
    </style>
  </defs>
  <path id="path117" class="st0" d="M265.58,417.55l34.22,59.27M319.46,510.87l5.78,10.01c9.69,16.77,27.59,27.11,46.95,27.11h88.01l44-76.21c9.69-16.77,9.69-37.44,0-54.22l-59.65-103.32M205.93,314.22l59.65,103.32c9.69,16.78,27.58,27.11,46.95,27.11h56.7c19.37,0,37.27,10.33,46.95,27.11l-59.65-103.32M309.58,341.33c19.37,0,37.27,10.33,46.95,27.11l-59.65-103.32c-9.69-16.78-27.58-27.11-46.95-27.11h-88.01l44,76.21c9.68,16.77,27.58,27.11,46.95,27.11h56.7ZM458.86,546.65l-42.67-74.88c-9.69-16.77-9.69-37.44,0-54.22l28.35-49.11c9.68-16.78,9.68-37.44,0-54.22l-23.73-41.1M221.58,238.01v-103.32l89.48,51.66M384.89,265.12c9.69-16.78,9.69-37.44,0-54.22l-44-76.21-44,76.21c-9.69,16.77-9.69,37.44,0,54.22l59.65,103.32c-9.69-16.78-9.69-37.44,0-54.22l28.35-49.11ZM601.42,212.26l68.74,119.07c3.57,6.19,3.57,13.81,0,20l-155.75,269.78c-3.57,6.19-10.18,10-17.32,10H185.58c-7.15,0-13.75-3.81-17.32-10L12.5,351.33c-3.57-6.19-3.57-13.81,0-20L168.26,61.56c3.57-6.19,10.18-10,17.32-10h311.51c7.15,0,13.75,3.81,17.32,10l66.42,115.04"/>
</svg>