<?xml version="1.0" encoding="UTF-8"?>
<svg id="Camada_1" xmlns="http://www.w3.org/2000/svg" version="1.1" viewBox="0 0 18 18">
  <!-- Generator: Adobe Illustrator 29.8.1, SVG Export Plug-In . SVG Version: 2.1.1 Build 2)  -->
  <defs>
    <style>
      .st0 {
        fill: none;
        stroke: #fff;
        stroke-linecap: round;
        stroke-linejoin: round;
        stroke-width: 2px;
      }
    </style>
  </defs>
  <path class="st0" d="M1,2c0-.27.11-.52.29-.71.19-.19.44-.29.71-.29h14c.27,0,.52.11.71.29.19.19.29.44.29.71v2c0,.27-.11.52-.29.71-.19.19-.44.29-.71.29H2c-.27,0-.52-.11-.71-.29-.19-.19-.29-.44-.29-.71V2ZM1,10c0-.27.11-.52.29-.71.19-.19.44-.29.71-.29h6c.27,0,.52.11.71.29.19.19.29.44.29.71v6c0,.27-.11.52-.29.71-.19.19-.44.29-.71.29H2c-.27,0-.52-.11-.71-.29-.19-.19-.29-.44-.29-.71v-6ZM13,10c0-.27.11-.52.29-.71.19-.19.44-.29.71-.29h2c.27,0,.52.11.71.29.19.19.29.44.29.71v6c0,.27-.11.52-.29.71s-.44.29-.71.29h-2c-.27,0-.52-.11-.71-.29s-.29-.44-.29-.71v-6Z"/>
</svg>