<?xml version="1.0" encoding="UTF-8"?>
<svg id="Camada_1" xmlns="http://www.w3.org/2000/svg" version="1.1" viewBox="0 0 18 18">
  <!-- Generator: Adobe Illustrator 29.8.1, SVG Export Plug-In . SVG Version: 2.1.1 Build 2)  -->
  <defs>
    <style>
      .st0 {
        fill: none;
        stroke: #fff;
        stroke-linecap: round;
        stroke-linejoin: round;
        stroke-width: 2px;
      }
    </style>
  </defs>
  <path class="st0" d="M13,5v8M9,8v5M5,11v2M3,17h12c.53,0,1.04-.21,1.41-.59.38-.38.59-.88.59-1.41V3c0-.53-.21-1.04-.59-1.41-.38-.38-.88-.59-1.41-.59H3c-.53,0-1.04.21-1.41.59-.38.38-.59.88-.59,1.41v12c0,.53.21,1.04.59,1.41.38.38.88.59,1.41.59Z"/>
</svg>