<?xml version="1.0" encoding="UTF-8"?>
<svg id="Camada_1" xmlns="http://www.w3.org/2000/svg" version="1.1" viewBox="0 0 64 64">
  <!-- Generator: Adobe Illustrator 29.8.1, SVG Export Plug-In . SVG Version: 2.1.1 Build 2)  -->
  <defs>
    <style>
      .st0 {
        fill: #00bfff;
      }
    </style>
  </defs>
  <path class="st0" d="M50.53,16.41c-.3-.47-.91-.61-1.38-.31-.47.3-.61.91-.31,1.38,0,.02.02.03.03.05,6.06,9,9.13,16.56,9.13,22.47,0,12.15-9.85,22-22,22s-22-9.85-22-22c0-15.25,20.41-36.78,21.28-37.69.4-.39,1.04-.39,1.45,0,3.53,3.79,6.83,7.79,9.88,11.97.33.45.95.55,1.4.22s.55-.95.22-1.4c-3.1-4.26-6.45-8.33-10.05-12.18-1.21-1.18-3.13-1.18-4.34,0-.72.75-14.3,15.09-19.67,29.02-4.61-.45-8.14-4.31-8.16-8.95,0-4.82,5.2-11.5,8.28-14.69.4-.39,1.04-.39,1.44,0,1.94,2.05,3.69,4.27,5.23,6.63.3.47.92.6,1.38.3s.6-.92.3-1.38c-1.61-2.47-3.44-4.8-5.47-6.94-1.2-1.17-3.12-1.17-4.32,0-.9.94-8.84,9.37-8.84,16.08.03,5.47,4.06,10.09,9.47,10.88-.91,2.61-1.41,5.36-1.47,8.12,0,13.25,10.75,24,24,24s24-10.75,24-24c0-6.32-3.19-14.25-9.47-23.58h-.01Z"/>
</svg>