<?xml version="1.0" encoding="UTF-8"?>
<svg id="Camada_1" xmlns="http://www.w3.org/2000/svg" version="1.1" viewBox="0 0 24 24">
  <!-- Generator: Adobe Illustrator 29.8.1, SVG Export Plug-In . SVG Version: 2.1.1 Build 2)  -->
  <defs>
    <style>
      .st0 {
        fill: #00bfff;
        fill-rule: evenodd;
      }
    </style>
  </defs>
  <path class="st0" d="M2,3C2,1.35,3.35,0,5,0h4C10.65,0,12,1.35,12,3v18c0,1.65-1.35,3-3,3h-4c-1.65,0-3-1.35-3-3V3ZM5,2c-.55,0-1,.45-1,1v18c0,.55.45,1,1,1h4c.55,0,1-.45,1-1V3c0-.55-.45-1-1-1h-4Z"/>
  <path class="st0" d="M2,10c0-.55.45-1,1-1h4c.55,0,1,.45,1,1s-.45,1-1,1H3c-.55,0-1-.45-1-1Z"/>
  <path class="st0" d="M2,18c0-.55.45-1,1-1h4c.55,0,1,.45,1,1s-.45,1-1,1H3c-.55,0-1-.45-1-1Z"/>
  <path class="st0" d="M2,6c0-.55.45-1,1-1h3c.55,0,1,.45,1,1s-.45,1-1,1h-3c-.55,0-1-.45-1-1Z"/>
  <path class="st0" d="M2,14c0-.55.45-1,1-1h3c.55,0,1,.45,1,1s-.45,1-1,1h-3c-.55,0-1-.45-1-1Z"/>
  <path class="st0" d="M17.29.29c.39-.39,1.02-.39,1.41,0l3,3c.39.39.39,1.02,0,1.41-.39.39-1.02.39-1.41,0l-2.29-2.29-2.29,2.29c-.39.39-1.02.39-1.41,0-.39-.39-.39-1.02,0-1.41l3-3Z"/>
  <path class="st0" d="M14.29,19.29c.39-.39,1.02-.39,1.41,0l2.29,2.29,2.29-2.29c.39-.39,1.02-.39,1.41,0s.39,1.02,0,1.41l-3,3c-.39.39-1.02.39-1.41,0l-3-3c-.39-.39-.39-1.02,0-1.41Z"/>
  <path class="st0" d="M18,0C18.55,0,19,.45,19,1v22c0,.55-.45,1-1,1s-1-.45-1-1V1C17,.45,17.45,0,18,0Z"/>
</svg>