<?xml version="1.0" encoding="UTF-8"?>
<svg id="Layer_1" xmlns="http://www.w3.org/2000/svg" version="1.1" viewBox="0 0 512 512">
  <!-- Generator: Adobe Illustrator 29.8.1, SVG Export Plug-In . SVG Version: 2.1.1 Build 2)  -->
  <defs>
    <style>
      .st0 {
        fill: #00bfff;
      }
    </style>
  </defs>
  <path class="st0" d="M403.04,162.52c-10.26-12.56-30.16-9.67-36.45,5.27-2.35,5.58-5.59,10.6-9.62,14.93-2.56,2.74-7.16,1.35-7.61-2.38-3.9-32.43-14.63-59.34-31.89-79.98-16-19.13-31.43-23.95-41.8-43.71-5.37-10.22-8.3-21.95-8.73-34.84-.67-20.31-25.74-29.42-39.18-14.21-13.11,14.84-24.57,30.72-34.05,47.21-2.35,4.09-.94,9.3,3.14,11.65,4.09,2.35,9.3.94,11.65-3.14,8.91-15.49,19.69-30.44,32.05-44.42,3.22-3.64,9.18-1.48,9.34,3.47.51,15.49,4.11,29.69,10.68,42.21,12.32,23.48,29.22,29.25,43.82,46.72,15.1,18.06,24.53,41.98,28.04,71.07,2.17,18.08,24.55,25.36,37.03,11.98,5.41-5.8,9.73-12.51,12.87-19.95,1.3-3.09,5.38-3.69,7.5-1.1,69.23,84.75,63.47,212.11-12.59,278.11-66.85,58.01-175.62,58.01-242.47,0-76.08-66.02-81.83-193.41-12.55-278.16,2.08-2.55,6.17-2.1,7.44.95,2.35,5.62,5.36,10.84,8.95,15.52,12.37,16.13,38.14,7.68,38.36-12.57.24-22.63,3.8-44.96,10.63-66.54,1.42-4.49-1.07-9.29-5.56-10.71-4.49-1.42-9.29,1.07-10.71,5.56-7.27,22.96-11.16,46.95-11.42,71.51-.03,2.57-1.78,3.53-2.83,3.88-.9.3-3.18.75-4.92-1.52-2.69-3.51-4.96-7.44-6.74-11.71-6.23-14.91-26.15-17.71-36.4-5.17-78.38,95.88-66.04,231.89,14.57,301.85,73.27,63.58,191.55,63.6,264.84,0,80.57-69.91,92.98-205.87,14.62-301.79h-.01Z"/>
</svg>