<?xml version="1.0"?>
<svg width="1500" height="700" xmlns="http://www.w3.org/2000/svg" xmlns:svg="http://www.w3.org/2000/svg" data-name="Camada 1">
 <defs>
  <style>.cls-1 {
        fill: #131313;
        font-family: Omnes-Regular, Omnes;
        font-size: 85px;
      }

      .cls-2 {
        fill: #00bdfd;
      }

      .cls-3 {
        letter-spacing: .06em;
      }

      .cls-4 {
        letter-spacing: .04em;
      }

      .cls-5 {
        letter-spacing: .06em;
      }

      .cls-6 {
        letter-spacing: .03em;
      }</style>
 </defs>
 <g class="layer">
  <title>Layer 1</title>
  <g id="svg_1">
   <path class="cls-2" d="m284.77,96.35l-167.22,0l0,350.36l163.5,0c122.09,0 169.87,-70.07 169.87,-175.18c0,-126.34 -66.36,-175.18 -166.15,-175.18zm50.06,208.71c-44.22,66.34 -106.13,42.69 -120.37,36.05c-12.72,21.66 -15.34,38 -15.38,38.33c-0.18,1.23 -1.23,2.12 -2.44,2.12c-0.12,0 -0.24,0 -0.36,-0.03c-1.35,-0.19 -2.28,-1.44 -2.09,-2.79c0.09,-0.61 8.44,-53.79 69.15,-96.9c8.13,-6.5 25.93,-15.87 26.26,-16.05c-6.72,1.87 -55.29,16.72 -83.79,61.73c-19.83,-50.47 8.41,-100.95 99.4,-121.17c44.41,-9.87 69.09,-24.67 69.1,-24.68l0,0s0,0 0,0l0,0s0,64.17 -39.48,123.39z" id="svg_2"/>
   <path class="cls-2" d="m543.29,193.52c18.75,0 36.06,-5.18 54.68,-13.82l0,267.02l-109.88,0l0,-267.02c18.19,10.12 35.65,13.82 55.21,13.82l-0.01,0zm0.53,-104.07c43,0 53.08,15.39 53.08,38.75c0,29.2 -15.93,39.81 -53.08,39.81s-53.08,-10.62 -53.08,-39.81c0,-23.36 10.09,-38.75 53.08,-38.75z" id="svg_3"/>
   <path class="cls-2" d="m630.34,312.41c0,-83.87 39.28,-140.14 140.14,-140.14c80.69,0 134.3,38.22 134.3,135.9l0,35.04l-165.62,0c0,21.76 18.58,36.63 65.82,36.63c29.73,0 61.58,-5.31 91.84,-18.05l0,74.85c-26.01,11.15 -62.11,18.58 -109.89,18.58c-93.96,0 -156.6,-39.81 -156.6,-142.8l0.01,-0.01zm182.61,-30.79c0,-22.29 -10.62,-37.16 -37.16,-37.16c-21.77,0 -36.63,10.62 -36.63,37.16l73.79,0z" id="svg_4"/>
   <path class="cls-2" d="m984.94,201.46l-97.68,0l0,-105.11l307.89,0l0,105.11l-97.14,0l0,245.25l-113.07,0l0,-245.25z" id="svg_5"/>
   <path class="cls-2" d="m1233.38,96.35l113.07,0l0,350.36l-113.07,0l0,-350.36z" id="svg_6"/>
  </g>
  <text class="cls-1" id="svg_7" x="675.26" y="598.87">Alimente sua saúde</text>
 </g>
</svg>