<?xml version="1.0"?>
<svg width="1500" height="700" xmlns="http://www.w3.org/2000/svg" xmlns:svg="http://www.w3.org/2000/svg" data-name="Camada 1">
 <defs>
  <style>.cls-1 {
        fill: #00bdfd;
      }

      .cls-2 {
        fill: #131313;
      }</style>
 </defs>
 <g class="layer">
  <title>Layer 1</title>
  <g id="svg_1">
   <path class="cls-1" d="m301.77,98.02l-167.22,0l0,350.36l163.5,0c122.09,0 169.87,-70.07 169.87,-175.18c0,-126.34 -66.36,-175.18 -166.15,-175.18zm50.06,208.71c-44.22,66.34 -106.13,42.69 -120.37,36.05c-12.72,21.66 -15.34,38 -15.38,38.33c-0.18,1.23 -1.23,2.12 -2.44,2.12c-0.12,0 -0.24,0 -0.36,-0.03c-1.35,-0.19 -2.28,-1.44 -2.09,-2.79c0.09,-0.61 8.44,-53.79 69.15,-96.9c8.13,-6.5 25.93,-15.87 26.26,-16.05c-6.72,1.87 -55.29,16.72 -83.79,61.73c-19.83,-50.47 8.41,-100.95 99.4,-121.17c44.41,-9.87 69.09,-24.67 69.1,-24.68l0,0s0,0 0,0l0,0s0,64.17 -39.48,123.39z" id="svg_2"/>
   <path class="cls-1" d="m560.29,195.19c18.75,0 36.06,-5.18 54.68,-13.82l0,267.02l-109.88,0l0,-267.02c18.19,10.12 35.65,13.82 55.21,13.82l-0.01,0zm0.53,-104.07c43,0 53.08,15.39 53.08,38.75c0,29.2 -15.93,39.81 -53.08,39.81s-53.08,-10.62 -53.08,-39.81c0,-23.36 10.09,-38.75 53.08,-38.75z" id="svg_3"/>
   <path class="cls-1" d="m647.34,314.08c0,-83.87 39.28,-140.14 140.14,-140.14c80.69,0 134.3,38.22 134.3,135.9l0,35.04l-165.62,0c0,21.76 18.58,36.63 65.82,36.63c29.73,0 61.58,-5.31 91.84,-18.05l0,74.85c-26.01,11.15 -62.11,18.58 -109.89,18.58c-93.96,0 -156.6,-39.81 -156.6,-142.8l0.01,-0.01zm182.61,-30.79c0,-22.29 -10.62,-37.16 -37.16,-37.16c-21.77,0 -36.63,10.62 -36.63,37.16l73.79,0z" id="svg_4"/>
   <path class="cls-1" d="m1001.94,203.13l-97.68,0l0,-105.11l307.89,0l0,105.11l-97.14,0l0,245.25l-113.07,0l0,-245.25z" id="svg_5"/>
   <path class="cls-1" d="m1250.38,98.02l113.07,0l0,350.36l-113.07,0l0,-350.36z" id="svg_6"/>
  </g>
  <g id="svg_7">
   <path class="cls-2" d="m585.45,613.92l19.72,-51.68c0.51,-1.36 1.62,-2.13 4.59,-2.13s4.08,0.77 4.59,2.13l19.81,51.68c0.17,0.51 -1.36,1.79 -3.32,1.87c-1.61,0.17 -3.14,-0.59 -4,-2.97l-5.78,-14.96l-22.78,0l-5.87,15.05c-0.76,2.46 -2.38,3.06 -3.83,2.89c-1.87,-0.08 -3.32,-1.45 -3.15,-1.87l0.02,-0.01zm33.91,-21.33l-9.69,-25.84l-9.78,25.84l19.47,0z" id="svg_8"/>
   <path class="cls-2" d="m646.22,612.91l0,-54.66c0,-0.25 1.02,-0.68 2.21,-0.68c1.96,0 3.91,1.02 3.91,5.44l0,49.9c0,2.21 -1.11,2.89 -2.72,2.89l-0.68,0c-1.62,0 -2.72,-0.68 -2.72,-2.89z" id="svg_9"/>
   <path class="cls-2" d="m672.4,558.33c2.46,0 3.91,1.36 3.91,3.91s-1.53,3.83 -4,3.83s-3.83,-1.36 -3.83,-3.83s1.44,-3.91 3.91,-3.91l0.01,0zm-3.15,19.3c0,-2.21 1.11,-2.98 2.72,-2.98l0.68,0c1.62,0 2.72,0.68 2.72,2.98l0,35.28c0,2.21 -1.1,2.89 -2.72,2.89l-0.68,0c-1.61,0 -2.72,-0.68 -2.72,-2.89l0,-35.28z" id="svg_10"/>
   <path class="cls-2" d="m753.24,591.14l0,21.76c0,2.21 -1.11,2.89 -2.72,2.89l-0.68,0c-1.62,0 -2.72,-0.68 -2.72,-2.89l0,-21.25c0,-7.82 -3.49,-12.16 -10.2,-12.16c-4.76,0 -9.35,3.06 -11.31,8.08l0,25.33c0,2.21 -1.19,2.89 -2.72,2.89l-0.68,0c-1.62,0 -2.72,-0.68 -2.72,-2.89l0,-21.76c0,-7.4 -3.4,-11.65 -10.2,-11.65c-4.67,0 -9.27,3.06 -11.39,8.08l0,25.33c0,2.21 -1.1,2.89 -2.63,2.89l-0.77,0c-1.53,0 -2.72,-0.68 -2.72,-2.89l0,-37.57c0,-0.17 1.02,-0.68 2.21,-0.68c1.87,0 3.57,0.94 3.74,5.02l0.08,2.04c2.64,-4.5 7.23,-7.65 12.84,-7.65c6.89,0 11.48,3.49 13.43,9.01c2.46,-5.27 7.4,-9.01 14.11,-9.01c9.95,0 15.05,6.38 15.05,17.09l0,-0.01z" id="svg_11"/>
   <path class="cls-2" d="m786.38,574.06c11.31,0 18.62,7.99 18.62,19.98l0,0.59c0,1.45 -0.6,1.96 -2.13,1.96l-30.69,0c0,0.34 0,0.76 0.08,1.19c0.76,8.16 6.63,13.6 14.79,13.6c7.57,0 11.14,-3.57 13.18,-7.48c0.34,-0.17 3.49,0.51 3.49,3.23c0,1.28 -1.02,3.23 -3.23,5.02c-2.55,2.21 -7.23,4.34 -13.52,4.34c-12.33,0 -20.66,-8.59 -20.66,-21s8.42,-21.42 20.06,-21.42l0.01,-0.01zm0,4.93c-7.4,0 -12.92,5.44 -14.03,13.18l26.61,0c-0.34,-7.91 -5.19,-13.18 -12.58,-13.18z" id="svg_12"/>
   <path class="cls-2" d="m853.79,591.65l0,21.25c0,2.21 -1.1,2.89 -2.63,2.89l-0.77,0c-1.61,0 -2.72,-0.68 -2.72,-2.89l0,-20.74c0,-7.82 -3.74,-12.67 -10.63,-12.67c-5.95,0 -10.37,3.32 -12.58,8.16l0,25.25c0,2.21 -1.1,2.89 -2.63,2.89l-0.77,0c-1.62,0 -2.72,-0.68 -2.72,-2.89l0,-37.57c0,-0.17 1.02,-0.68 2.21,-0.68c1.87,0 3.57,0.94 3.74,5.1l0,2.38c2.72,-4.85 7.48,-8.08 13.94,-8.08c10.46,0 15.56,7.23 15.56,17.6z" id="svg_13"/>
   <path class="cls-2" d="m872.06,603.72l0,-23.55l-4,0c-1.96,0 -2.63,-0.85 -2.63,-2.3l0,-0.59c0,-1.45 0.68,-2.29 2.63,-2.29l4,0l0,-7.14c0,-2.12 1.11,-2.98 2.72,-2.98l0.68,0c1.62,0 2.64,0.76 2.64,2.98l0,7.14l10.29,0c1.87,0 2.64,0.76 2.64,2.29l0,0.51c0,1.53 -0.77,2.38 -2.72,2.38l-10.29,0l0,22.61c0,5.95 1.79,8.5 6.04,8.5c2.72,0 4.76,-1.28 6.04,-3.15c0.25,-0.17 1.7,0.68 1.7,2.8c0,1.02 -0.42,2.13 -1.53,3.15c-1.45,1.36 -3.74,2.38 -7.06,2.38c-7.48,0 -11.14,-4.17 -11.14,-12.75l-0.01,0.01z" id="svg_14"/>
   <path class="cls-2" d="m921.19,574.06c11.31,0 18.62,7.99 18.62,19.98l0,0.59c0,1.45 -0.6,1.96 -2.13,1.96l-30.69,0c0,0.34 0,0.76 0.08,1.19c0.76,8.16 6.63,13.6 14.79,13.6c7.57,0 11.14,-3.57 13.18,-7.48c0.34,-0.17 3.49,0.51 3.49,3.23c0,1.28 -1.02,3.23 -3.23,5.02c-2.55,2.21 -7.23,4.34 -13.52,4.34c-12.33,0 -20.66,-8.59 -20.66,-21s8.42,-21.42 20.06,-21.42l0.01,-0.01zm0,4.93c-7.4,0 -12.92,5.44 -14.03,13.18l26.61,0c-0.34,-7.91 -5.19,-13.18 -12.58,-13.18z" id="svg_15"/>
   <path class="cls-2" d="m969.72,608.14c0,-2.12 2.38,-3.06 2.63,-2.98c2.55,3.66 7.14,6.38 13.77,6.38s10.12,-2.72 10.12,-6.72c0,-4.76 -4.42,-5.7 -11.31,-7.23c-6.21,-1.28 -14.03,-3.06 -14.03,-11.31c0,-7.23 6.04,-12.24 15.39,-12.24c6.54,0 10.97,2.12 13.26,4.59c0.94,0.93 1.53,2.21 1.53,3.23c0,2.13 -2.47,3.23 -2.64,3.06c-2.21,-3.4 -6.63,-6.04 -12.07,-6.04c-6.21,0 -9.78,2.8 -9.78,6.71c0,4.42 4.25,5.44 10.97,6.97c6.63,1.45 14.62,3.23 14.62,11.56c0,7.4 -6.21,12.33 -16.15,12.33c-6.63,0 -11.22,-1.96 -13.86,-4.25c-1.7,-1.45 -2.46,-2.8 -2.46,-4.08l0.01,0.02z" id="svg_16"/>
   <path class="cls-2" d="m1048.26,577.54l0,37.66c0,0.17 -1.02,0.68 -2.21,0.68c-1.7,0 -3.23,-0.85 -3.57,-4c-0.08,-1.11 -0.17,-2.21 -0.17,-3.32c-2.72,4.51 -7.4,7.91 -13.94,7.91c-10.46,0 -15.56,-7.23 -15.56,-17.68l0,-21.25c0,-2.21 1.1,-2.89 2.72,-2.89l0.68,0c1.62,0 2.72,0.68 2.72,2.89l0,20.83c0,7.82 3.83,12.67 10.71,12.67c5.87,0 10.29,-3.32 12.5,-8.25l0,-25.25c0,-2.21 1.1,-2.89 2.63,-2.89l0.77,0c1.61,0 2.72,0.68 2.72,2.89z" id="svg_17"/>
   <path class="cls-2" d="m1087.87,591.74l0.93,0l0,-1.7c0,-6.89 -4,-10.71 -10.97,-10.71c-6.46,0 -10.37,3.15 -12.41,7.23c-0.17,0.08 -3.74,-0.08 -3.74,-3.15c0,-1.19 0.85,-2.97 2.47,-4.5c2.63,-2.55 7.31,-4.85 14.03,-4.85c10.8,0 16.66,6.04 16.66,16.07l0,25.08c0,0.25 -1.11,0.68 -2.21,0.68c-1.79,0 -3.23,-0.85 -3.57,-3.91c-0.08,-1.19 -0.17,-2.46 -0.17,-3.74c-2.72,4.93 -8.25,8.16 -15.05,8.16c-8.5,0 -13.77,-4.42 -13.77,-11.31c0,-9.18 8.67,-13.09 27.8,-13.35zm0.94,3.99l-1.45,0.08c-14.79,0.34 -21.17,2.89 -21.17,9.1c0,4.25 3.4,6.89 8.84,6.89c7.82,0 13.77,-5.27 13.77,-12.16l0,-3.91l0.01,0z" id="svg_18"/>
   <path class="cls-2" d="m1127.05,608.14c0,-2.12 2.38,-3.06 2.64,-2.98c2.55,3.66 7.14,6.38 13.77,6.38s10.12,-2.72 10.12,-6.72c0,-4.76 -4.42,-5.7 -11.31,-7.23c-6.21,-1.28 -14.03,-3.06 -14.03,-11.31c0,-7.23 6.04,-12.24 15.39,-12.24c6.55,0 10.97,2.12 13.26,4.59c0.93,0.93 1.53,2.21 1.53,3.23c0,2.13 -2.46,3.23 -2.63,3.06c-2.21,-3.4 -6.63,-6.04 -12.07,-6.04c-6.21,0 -9.78,2.8 -9.78,6.71c0,4.42 4.25,5.44 10.97,6.97c6.63,1.45 14.62,3.23 14.62,11.56c0,7.4 -6.21,12.33 -16.15,12.33c-6.63,0 -11.22,-1.96 -13.86,-4.25c-1.7,-1.45 -2.46,-2.8 -2.46,-4.08l-0.01,0.02z" id="svg_19"/>
   <path class="cls-2" d="m1198.29,591.74l0.94,0l0,-1.7c0,-6.89 -4,-10.71 -10.97,-10.71c-6.46,0 -10.37,3.15 -12.41,7.23c-0.17,0.08 -3.74,-0.08 -3.74,-3.15c0,-1.19 0.85,-2.97 2.46,-4.5c2.64,-2.55 7.31,-4.85 14.03,-4.85c10.8,0 16.66,6.04 16.66,16.07l0,25.08c0,0.25 -1.11,0.68 -2.21,0.68c-1.79,0 -3.23,-0.85 -3.57,-3.91c-0.08,-1.19 -0.17,-2.46 -0.17,-3.74c-2.72,4.93 -8.25,8.16 -15.05,8.16c-8.5,0 -13.77,-4.42 -13.77,-11.31c0,-9.18 8.67,-13.09 27.8,-13.35zm0.93,3.99l-1.45,0.08c-14.79,0.34 -21.17,2.89 -21.17,9.1c0,4.25 3.4,6.89 8.84,6.89c7.82,0 13.77,-5.27 13.77,-12.16l0,-3.91l0.01,0z" id="svg_20"/>
   <path class="cls-2" d="m1256,577.54l0,37.66c0,0.17 -1.02,0.68 -2.21,0.68c-1.7,0 -3.23,-0.85 -3.57,-4c-0.08,-1.11 -0.17,-2.21 -0.17,-3.32c-2.72,4.51 -7.4,7.91 -13.94,7.91c-10.46,0 -15.56,-7.23 -15.56,-17.68l0,-21.25c0,-2.21 1.11,-2.89 2.72,-2.89l0.68,0c1.62,0 2.72,0.68 2.72,2.89l0,20.83c0,7.82 3.83,12.67 10.71,12.67c5.87,0 10.29,-3.32 12.5,-8.25l0,-25.25c0,-2.21 1.11,-2.89 2.64,-2.89l0.76,0c1.62,0 2.72,0.68 2.72,2.89zm-24.4,-9.01c0,-0.85 7.91,-13.69 12.92,-13.69c1.53,0 2.64,1.19 2.64,2.72c0,4.85 -13.94,11.31 -14.79,11.31c-0.6,0 -0.77,-0.17 -0.77,-0.34z" id="svg_21"/>
   <path class="cls-2" d="m1269.43,595.22c0,-12.58 7.99,-21.17 18.87,-21.17c7.23,0 12.33,3.66 14.62,7.82l0,-23.63c0,-0.25 0.93,-0.68 2.12,-0.68c2.04,0 4,1.02 4,5.44l0,49.9c0,2.21 -1.1,2.89 -2.72,2.89l-0.6,0c-1.53,0 -2.63,-0.68 -2.63,-2.72c-0.08,-1.7 -0.08,-3.4 -0.08,-5.27c-2.89,5.19 -7.74,8.67 -14.88,8.67c-10.71,0 -18.7,-8.5 -18.7,-21.25zm33.49,-6.29c-2.21,-5.87 -6.72,-9.69 -13.6,-9.69c-8.16,0 -13.77,6.38 -13.77,15.98s5.7,16.07 13.69,16.07c7.57,0 13.69,-5.7 13.69,-13.26l0,-9.1l-0.01,0z" id="svg_22"/>
   <path class="cls-2" d="m1342.53,574.06c11.31,0 18.62,7.99 18.62,19.98l0,0.59c0,1.45 -0.59,1.96 -2.12,1.96l-30.69,0c0,0.34 0,0.76 0.08,1.19c0.77,8.16 6.63,13.6 14.79,13.6c7.57,0 11.14,-3.57 13.18,-7.48c0.34,-0.17 3.48,0.51 3.48,3.23c0,1.28 -1.02,3.23 -3.23,5.02c-2.55,2.21 -7.23,4.34 -13.52,4.34c-12.33,0 -20.66,-8.59 -20.66,-21s8.42,-21.42 20.06,-21.42l0.01,-0.01zm0,4.93c-7.4,0 -12.92,5.44 -14.03,13.18l26.61,0c-0.34,-7.91 -5.19,-13.18 -12.58,-13.18z" id="svg_23"/>
  </g>
 </g>
</svg>