<?xml version="1.0" encoding="UTF-8"?>
<svg id="Capa_1" xmlns="http://www.w3.org/2000/svg" version="1.1" viewBox="0 0 512 512">
  <!-- Generator: Adobe Illustrator 29.8.1, SVG Export Plug-In . SVG Version: 2.1.1 Build 2)  -->
  <defs>
    <style>
      .st0 {
        fill: #00bfff;
      }
    </style>
  </defs>
  <path class="st0" d="M467,76H45C20.14,76,0,96.26,0,121v270c0,24.89,20.28,45,45,45h422c24.65,0,45-20.03,45-45V121c0-24.69-20.06-45-45-45ZM460.7,106c-9.19,9.15-167.41,166.53-172.88,171.97-8.5,8.5-19.8,13.18-31.82,13.18s-23.32-4.68-31.85-13.21c-3.67-3.65-160.15-159.3-172.85-171.94h409.4ZM30,384.89V127.12l129.64,128.95L30,384.89ZM51.32,406l129.59-128.76,22.06,21.94c14.17,14.17,33,21.97,53.03,21.97s38.87-7.8,53.01-21.94l22.09-21.97,129.59,128.76H51.32ZM482,384.89l-129.64-128.81,129.64-128.95v257.77Z"/>
</svg>