<?xml version="1.0" encoding="UTF-8"?>
<svg id="Capa_1" xmlns="http://www.w3.org/2000/svg" version="1.1" viewBox="0 0 512 512">
  <!-- Generator: Adobe Illustrator 29.8.1, SVG Export Plug-In . SVG Version: 2.1.1 Build 2)  -->
  <defs>
    <style>
      .st0 {
        fill: #00bfff;
      }
    </style>
  </defs>
  <path class="st0" d="M436.45,512c-26.4,0-43.77-24.29-51.65-72.19-52.39-51.46-111.61-67.62-168.9-83.26-57.7-15.75-117.36-32.03-169.18-83.85-62.3-62.3-62.3-163.68,0-225.98,62.3-62.3,163.68-62.3,225.98,0,2.93,2.93,2.93,7.68,0,10.61-2.93,2.93-7.68,2.93-10.61,0C205.64.88,113.79.88,57.34,57.34.88,113.79.88,205.64,57.34,262.1c49,49,104.14,64.05,162.52,79.98,58.61,16,119.19,32.53,173.95,85.55,9.73-3.56,17.32-8.53,23.12-15.1,2.74-3.1,7.48-3.4,10.59-.66,3.11,2.74,3.4,7.48.66,10.59-7.23,8.19-16.4,14.37-27.9,18.77,6.65,37.01,18.81,55.77,36.18,55.77,19.06,0,24.62-29.51,24.67-29.81.56-3.09,2.99-5.52,6.08-6.07.28-.05,29.79-5.61,29.79-24.67s-20.84-30.84-61.94-37.22c-1.57-.24-3.03-.98-4.15-2.11-55.63-55.63-72.5-117.47-88.83-177.27-13.7-50.18-26.63-97.58-61-141.19-2.56-3.25-2.01-7.97,1.25-10.53,3.25-2.56,7.97-2.01,10.53,1.25,36.26,46,50.21,97.11,63.7,146.52,15.64,57.29,31.8,116.51,83.26,168.9,47.9,7.88,72.19,25.25,72.19,51.65s-26.08,35.24-37.26,38.29c-3.05,11.18-12.9,37.26-38.29,37.26h0ZM194.43,102.53c-4.41,0-8-3.59-8-8s3.59-8,8-8,8,3.59,8,8-3.59,8-8,8ZM228.44,82.53c-4.41,0-8-3.59-8-8s3.59-8,8-8,8,3.59,8,8-3.59,8-8,8ZM194.43,62.52c-4.41,0-8-3.59-8-8s3.59-8,8-8,8,3.59,8,8-3.59,8-8,8Z"/>
</svg>