<?xml version="1.0" encoding="UTF-8"?>
<svg id="Camada_1" xmlns="http://www.w3.org/2000/svg" version="1.1" viewBox="0 0 512 512">
  <!-- Generator: Adobe Illustrator 29.8.1, SVG Export Plug-In . SVG Version: 2.1.1 Build 2)  -->
  <defs>
    <style>
      .st0 {
        fill: #00bfff;
      }
    </style>
  </defs>
  <path class="st0" d="M252.35,246.63c33.88,0,63.22-12.15,87.2-36.13,23.97-23.97,36.12-53.3,36.12-87.19s-12.15-63.21-36.13-87.19C315.57,12.15,286.23,0,252.35,0s-63.22,12.15-87.19,36.12-36.13,53.31-36.13,87.19,12.16,63.22,36.13,87.2c23.98,23.97,53.32,36.12,87.19,36.12ZM186.38,57.34c18.39-18.39,39.97-27.34,65.97-27.34s47.58,8.94,65.98,27.34c18.39,18.4,27.34,39.98,27.34,65.97s-8.95,47.58-27.34,65.98c-18.4,18.4-39.98,27.34-65.98,27.34s-47.57-8.95-65.97-27.34c-18.4-18.39-27.34-39.98-27.34-65.98s8.95-47.57,27.34-65.97Z"/>
  <path class="st0" d="M468.13,393.7c-.69-9.98-2.09-20.86-4.15-32.35-2.08-11.58-4.75-22.52-7.96-32.53-3.31-10.34-7.81-20.55-13.38-30.34-5.77-10.16-12.55-19-20.16-26.28-7.96-7.61-17.7-13.73-28.96-18.2-11.23-4.44-23.67-6.69-36.98-6.69-5.23,0-10.28,2.14-20.04,8.5-6.01,3.92-13.04,8.45-20.88,13.46-6.71,4.27-15.79,8.28-27.02,11.9-10.95,3.54-22.07,5.34-33.04,5.34s-22.09-1.8-33.04-5.34c-11.21-3.62-20.3-7.62-27-11.9-7.77-4.96-14.8-9.5-20.9-13.47-9.75-6.36-14.81-8.5-20.04-8.5-13.31,0-25.75,2.25-36.97,6.7-11.26,4.46-21,10.58-28.97,18.2-7.61,7.28-14.39,16.12-20.16,26.27-5.56,9.79-10.06,19.99-13.37,30.34-3.2,10-5.88,20.95-7.95,32.52-2.06,11.48-3.46,22.36-4.15,32.36-.68,9.78-1.02,19.95-1.02,30.23,0,26.73,8.5,48.36,25.25,64.32,16.55,15.75,38.44,23.73,65.07,23.73h246.53c26.62,0,48.51-7.98,65.06-23.73,16.76-15.95,25.25-37.59,25.25-64.32,0-10.32-.35-20.49-1.04-30.24ZM423.22,466.53c-10.93,10.41-25.45,15.46-44.38,15.46h-246.53c-18.93,0-33.45-5.06-44.38-15.46-10.72-10.21-15.93-24.14-15.93-42.59,0-9.59.32-19.07.95-28.16.62-8.92,1.88-18.72,3.75-29.14,1.85-10.29,4.2-19.94,7-28.68,2.68-8.38,6.34-16.68,10.88-24.67,4.33-7.62,9.32-14.15,14.82-19.42,5.14-4.93,11.63-8.96,19.27-11.98,7.07-2.8,15.01-4.33,23.63-4.56,1.05.56,2.92,1.62,5.95,3.6,6.17,4.02,13.28,8.61,21.14,13.62,8.86,5.65,20.27,10.75,33.91,15.15,13.94,4.51,28.16,6.8,42.27,6.8s28.34-2.29,42.27-6.79c13.65-4.41,25.06-9.51,33.93-15.16,8.04-5.14,14.95-9.59,21.12-13.62,3.03-1.97,4.9-3.04,5.95-3.6,8.62.23,16.57,1.76,23.64,4.56,7.64,3.02,14.12,7.06,19.27,11.98,5.5,5.26,10.48,11.8,14.82,19.42,4.54,7.99,8.21,16.29,10.89,24.66,2.8,8.75,5.16,18.4,7,28.68,1.87,10.43,3.13,20.24,3.75,29.14h0c.64,9.07.96,18.54.96,28.16,0,18.45-5.21,32.38-15.94,42.58Z"/>
</svg>