<?xml version="1.0" encoding="UTF-8"?>
<svg id="Layer_1" xmlns="http://www.w3.org/2000/svg" version="1.1" viewBox="0 0 512 512">
  <!-- Generator: Adobe Illustrator 29.8.1, SVG Export Plug-In . SVG Version: 2.1.1 Build 2)  -->
  <defs>
    <style>
      .st0 {
        fill: #00bfff;
      }
    </style>
  </defs>
  <path class="st0" d="M449.81,504.47H62.12c-30.17-.08-54.59-24.57-54.59-54.74V143.06c0-30.2,24.46-54.7,54.66-54.74h82.82c4.16,0,7.53,3.37,7.53,7.53s-3.37,7.53-7.53,7.53H62.19c-21.89.04-39.6,17.79-39.6,39.68v306.67c0,21.86,17.67,39.6,39.53,39.68h387.69c21.89-.04,39.6-17.79,39.6-39.68V143.06c-.04-21.9-17.78-39.64-39.68-39.68h-82.82c-4.16,0-7.53-3.37-7.53-7.53s3.37-7.53,7.53-7.53h82.82c30.21.04,54.7,24.52,54.74,54.74v306.67c-.04,30.18-24.48,54.66-54.66,54.74Z"/>
  <path class="st0" d="M430.31,466.82H81.69c-20.16-.08-36.48-16.43-36.52-36.59V159.17c.15-18.42,15.2-33.23,33.62-33.08,16.21.13,29.98,11.9,32.64,27.89,12.53,79.86,87.43,134.44,167.29,121.91,62.8-9.85,112.06-59.11,121.91-121.91,2.76-18.21,19.76-30.74,37.97-27.99,16.38,2.48,28.46,16.61,28.36,33.18v271.06c-.04,20.22-16.45,36.59-36.67,36.59ZM78.46,141.1c-10.08.04-18.22,8.22-18.22,18.3v271.06c.12,11.78,9.68,21.27,21.46,21.31h348.61c11.86-.04,21.46-9.67,21.46-21.53V159.17c-.23-10.14-8.65-18.18-18.79-17.94-8.72.2-16.09,6.5-17.65,15.08-13.97,88.05-96.68,148.11-184.74,134.13-69.04-10.96-123.18-65.1-134.13-134.13-1.47-8.79-9.08-15.22-18-15.21Z"/>
  <path class="st0" d="M256,255.25c-68.41,0-123.86-55.45-123.86-123.86S187.59,7.53,256,7.53s123.86,55.45,123.86,123.86h0c-.08,68.37-55.49,123.78-123.86,123.86ZM256,22.59c-60.09,0-108.8,48.71-108.8,108.8s48.71,108.8,108.8,108.8,108.8-48.71,108.8-108.8c-.04-60.07-48.73-108.76-108.8-108.8Z"/>
  <path class="st0" d="M256,67.76c-4.16,0-7.53-3.37-7.53-7.53v-18.07c0-4.16,3.37-7.53,7.53-7.53s7.53,3.37,7.53,7.53v18.07c0,4.16-3.37,7.53-7.53,7.53Z"/>
  <path class="st0" d="M220.54,77.55c-2.67-.02-5.14-1.45-6.48-3.76l-9.19-15.96c-2.06-3.58-.85-8.15,2.71-10.24,3.59-2.1,8.2-.9,10.3,2.69,0,0,0,.01.01.02l9.19,15.96c2.08,3.6.86,8.2-2.74,10.29-.01,0-.03.02-.05.03-1.15.65-2.45.99-3.76.98Z"/>
  <path class="st0" d="M194.64,103.45c-1.32,0-2.62-.33-3.76-.98l-15.96-9.19c-3.62-2.05-4.88-6.65-2.83-10.27.04-.07.08-.13.12-.2,2.09-3.56,6.66-4.77,10.24-2.71l15.96,9.19c3.59,2.07,4.83,6.64,2.79,10.24-1.31,2.4-3.82,3.9-6.55,3.92Z"/>
  <path class="st0" d="M185.15,138.92h-18.37c-4.16,0-7.53-3.37-7.53-7.53s3.37-7.53,7.53-7.53h18.37c4.16,0,7.53,3.37,7.53,7.53s-3.37,7.53-7.53,7.53Z"/>
  <path class="st0" d="M178.67,183.49c-4.16-.04-7.49-3.45-7.45-7.61.03-2.63,1.42-5.06,3.69-6.4l15.96-9.19c3.59-2.1,8.2-.9,10.3,2.69,0,0,0,.01.01.02,1.99,3.58.75,8.1-2.79,10.16l-15.96,9.19c-1.13.7-2.43,1.09-3.76,1.13Z"/>
  <path class="st0" d="M333.25,183.49c-1.32,0-2.62-.33-3.76-.98l-15.96-9.34c-3.59-2.09-4.81-6.7-2.72-10.29,0,0,0-.01.01-.02,2.09-3.56,6.66-4.77,10.24-2.71l15.96,9.19c3.59,2.07,4.83,6.64,2.79,10.24-1.31,2.4-3.82,3.9-6.55,3.92Z"/>
  <path class="st0" d="M345.22,138.92h-18.45c-4.16,0-7.53-3.37-7.53-7.53s3.37-7.53,7.53-7.53h18.45c4.16,0,7.53,3.37,7.53,7.53s-3.37,7.53-7.53,7.53h0Z"/>
  <path class="st0" d="M317.29,103.45c-4.16-.04-7.49-3.45-7.45-7.61.03-2.63,1.42-5.06,3.69-6.4l15.96-9.19c3.59-2.1,8.2-.9,10.3,2.69,0,0,0,.01.01.02,2.08,3.6.86,8.2-2.74,10.29-.01,0-.03.02-.05.03l-15.96,9.19c-1.15.65-2.45.99-3.76.98Z"/>
  <path class="st0" d="M291.39,77.55c-4.16.02-7.54-3.34-7.56-7.5,0-1.33.34-2.64,1.01-3.79l9.26-15.96c2.23-3.51,6.88-4.55,10.39-2.31,3.3,2.1,4.45,6.38,2.63,9.84l-9.19,15.96c-1.35,2.34-3.85,3.78-6.55,3.76Z"/>
  <path class="st0" d="M256,152.7c-11.77,0-21.31-9.54-21.31-21.31s9.54-21.31,21.31-21.31,21.31,9.54,21.31,21.31-9.54,21.31-21.31,21.31h0ZM256,125.14c-3.45,0-6.25,2.8-6.25,6.25,0,3.45,2.8,6.25,6.25,6.25,3.45,0,6.25-2.8,6.25-6.25,0-3.45-2.8-6.25-6.25-6.25Z"/>
  <path class="st0" d="M265.71,129.13c-4.16-.02-7.52-3.4-7.5-7.56,0-1.96.78-3.84,2.15-5.24l25-25c2.93-2.95,7.7-2.97,10.65-.04.01.01.03.03.04.04,2.92,2.94,2.92,7.68,0,10.62l-25,25c-1.42,1.41-3.34,2.2-5.35,2.18Z"/>
</svg>